<?xml version="1.0" encoding="utf-8"?>
<!-- Generator: Adobe Illustrator 19.2.1, SVG Export Plug-In . SVG Version: 6.00 Build 0)  -->
<svg version="1.1" id="layer" xmlns="http://www.w3.org/2000/svg" xmlns:xlink="http://www.w3.org/1999/xlink" x="0px" y="0px"
	 viewBox="0 0 652 652" style="enable-background:new 0 0 652 652;" xml:space="preserve">
<style type="text/css">
	.st0{fill:#0A2885;}
	.st1{fill:#FFFFFF;}
</style>
<path class="st0" d="M321,71L321,71c138.1,0,250,111.9,250,250l0,0c0,138.1-111.9,250-250,250l0,0C182.9,571,71,459.1,71,321l0,0
	C71,182.9,182.9,71,321,71z"/>
<path class="st1" d="M437.4,374.3c-18.4,0-31-13.5-31-32.8c0-19,12.9-32.5,31-32.5c18.1,0,31.1,13.5,31.1,32.8
	C468.5,360.5,455.2,374.3,437.4,374.3L437.4,374.3z M438,267c-47.2,0-78.6,29.9-78.6,74.5c0,45.7,30.2,75.1,77.7,75.1
	c47.2,0,78.2-29.4,78.2-74.8C515.4,296.9,484.6,267,438,267L438,267z M316.4,201.7c-17.8,0-29.1,10.1-29.1,25.9
	c0,16.1,11.5,26.2,29.9,26.2c17.9,0,29.1-10.1,29.1-26.2C346.3,211.5,334.8,201.7,316.4,201.7z M319.6,268.4h-5.8
	c-14.1,0-24.7,6.6-24.7,26.8v92.1c0,20.4,10.3,26.8,25.3,26.8h5.7c14.1,0,24.2-6.9,24.2-26.8v-92.1
	C344.3,274.5,334.5,268.4,319.6,268.4z M244.3,225h-8.3c-15.8,0-24.5,9-24.5,26.8v86c0,22.1-7.5,29.9-25,29.9c-13.8,0-25-6-34-17
	c-0.9-1.1-19,7.5-19,28.8c0,23,21.6,37.1,61.6,37.1c48.6,0,74.2-24.4,74.2-78v-87C269.3,233.9,260.7,225,244.3,225z"/>
</svg>
